<?xml version="1.0" encoding="UTF-8" standalone="no"?><svg xmlns="http://www.w3.org/2000/svg" xmlns:xlink="http://www.w3.org/1999/xlink" contentStyleType="text/css" height="627px" preserveAspectRatio="none" style="width:650px;height:627px;background:#FFFFFF;" version="1.1" viewBox="0 0 650 627" width="650px" zoomAndPan="magnify"><defs/><g><!--MD5=[fd57328f2c2e5673b893b012ad10e449]
class Artisant--><g id="elem_Artisant"><rect codeLine="1" fill="#F1F1F1" height="259.8594" id="Artisant" rx="2.5" ry="2.5" style="stroke:#181818;stroke-width:0.5;" width="181" x="7" y="72.746"/><ellipse cx="64.25" cy="88.746" fill="#ADD1B2" rx="11" ry="11" style="stroke:#181818;stroke-width:1.0;"/><path d="M66.5938,84.4179 C65.6563,83.9804 65.0625,83.8397 64.1875,83.8397 C61.5625,83.8397 59.5625,85.9179 59.5625,88.6366 L59.5625,89.7616 C59.5625,92.3397 61.6719,94.2304 64.5625,94.2304 C65.7813,94.2304 66.9375,93.9335 67.6875,93.3866 C68.2656,92.9804 68.5938,92.5272 68.5938,92.1366 C68.5938,91.6835 68.2031,91.2929 67.7344,91.2929 C67.5156,91.2929 67.3125,91.371 67.125,91.5585 C66.6719,92.0429 66.6719,92.0429 66.4844,92.1366 C66.0625,92.4022 65.375,92.5272 64.6094,92.5272 C62.5625,92.5272 61.2656,91.4335 61.2656,89.7304 L61.2656,88.6366 C61.2656,86.8554 62.5156,85.5429 64.25,85.5429 C64.8281,85.5429 65.4375,85.6991 65.9063,85.9491 C66.3906,86.2304 66.5625,86.4491 66.6563,86.8554 C66.7188,87.2616 66.75,87.3866 66.8906,87.5116 C67.0313,87.6522 67.2656,87.7616 67.4844,87.7616 C67.75,87.7616 68.0156,87.621 68.1875,87.4022 C68.2969,87.246 68.3281,87.0585 68.3281,86.6366 L68.3281,85.2147 C68.3281,84.7772 68.3125,84.6522 68.2188,84.496 C68.0625,84.2304 67.7813,84.0897 67.4844,84.0897 C67.1875,84.0897 66.9844,84.1835 66.7656,84.496 L66.5938,84.4179 Z " fill="#000000"/><text fill="#000000" font-family="sans-serif" font-size="14" lengthAdjust="spacing" textLength="58" x="84.75" y="93.5927">Artisant</text><line style="stroke:#181818;stroke-width:0.5;" x1="8" x2="187" y1="104.746" y2="104.746"/><rect fill="none" height="6" style="stroke:#C82930;stroke-width:1.0;" width="6" x="15" y="112.746"/><text fill="#000000" font-family="sans-serif" font-size="14" lengthAdjust="spacing" textLength="80" x="27" y="121.7411">String nom</text><rect fill="none" height="6" style="stroke:#C82930;stroke-width:1.0;" width="6" x="15" y="129.0429"/><text fill="#000000" font-family="sans-serif" font-size="14" lengthAdjust="spacing" textLength="105" x="27" y="138.038">String prenom</text><rect fill="none" height="6" style="stroke:#C82930;stroke-width:1.0;" width="6" x="15" y="145.3397"/><text fill="#000000" font-family="sans-serif" font-size="14" lengthAdjust="spacing" textLength="103" x="27" y="154.3349">String adresse</text><rect fill="none" height="6" style="stroke:#C82930;stroke-width:1.0;" width="6" x="15" y="161.6366"/><text fill="#000000" font-family="sans-serif" font-size="14" lengthAdjust="spacing" textLength="72" x="27" y="170.6317">int Salaire</text><rect fill="none" height="6" style="stroke:#C82930;stroke-width:1.0;" width="6" x="15" y="177.9335"/><text fill="#000000" font-family="sans-serif" font-size="14" lengthAdjust="spacing" textLength="68" x="27" y="186.9286">String tel</text><rect fill="none" height="6" style="stroke:#C82930;stroke-width:1.0;" width="6" x="15" y="194.2304"/><text fill="#000000" font-family="sans-serif" font-size="14" lengthAdjust="spacing" textLength="118" x="27" y="203.2255">String specialite</text><line style="stroke:#181818;stroke-width:0.5;" x1="8" x2="187" y1="210.5272" y2="210.5272"/><ellipse cx="18" cy="221.5272" fill="#84BE84" rx="3" ry="3" style="stroke:#038048;stroke-width:1.0;"/><text fill="#000000" font-family="sans-serif" font-size="14" lengthAdjust="spacing" textLength="116" x="27" y="227.5224">String getNom()</text><ellipse cx="18" cy="237.8241" fill="#84BE84" rx="3" ry="3" style="stroke:#038048;stroke-width:1.0;"/><text fill="#000000" font-family="sans-serif" font-size="14" lengthAdjust="spacing" textLength="139" x="27" y="243.8192">String getPrenom()</text><ellipse cx="18" cy="254.121" fill="#84BE84" rx="3" ry="3" style="stroke:#038048;stroke-width:1.0;"/><text fill="#000000" font-family="sans-serif" font-size="14" lengthAdjust="spacing" textLength="140" x="27" y="260.1161">String getAdresse()</text><ellipse cx="18" cy="270.4179" fill="#84BE84" rx="3" ry="3" style="stroke:#038048;stroke-width:1.0;"/><text fill="#000000" font-family="sans-serif" font-size="14" lengthAdjust="spacing" textLength="107" x="27" y="276.413">int getSalaire()</text><ellipse cx="18" cy="286.7148" fill="#84BE84" rx="3" ry="3" style="stroke:#038048;stroke-width:1.0;"/><text fill="#000000" font-family="sans-serif" font-size="14" lengthAdjust="spacing" textLength="105" x="27" y="292.7099">String getTel()</text><ellipse cx="18" cy="303.0116" fill="#84BE84" rx="3" ry="3" style="stroke:#038048;stroke-width:1.0;"/><text fill="#000000" font-family="sans-serif" font-size="14" lengthAdjust="spacing" textLength="155" x="27" y="309.0067">String getSpecialite()</text><ellipse cx="18" cy="319.3085" fill="#84BE84" rx="3" ry="3" style="stroke:#038048;stroke-width:1.0;"/><text fill="#000000" font-family="sans-serif" font-size="14" lengthAdjust="spacing" textLength="118" x="27" y="325.3036">String toString()</text></g><!--MD5=[e5da348f9a286ac789819f64e84f1dc7]
class Entreprise--><g id="elem_Entreprise"><rect codeLine="17" fill="#F1F1F1" height="194.6719" id="Entreprise" rx="2.5" ry="2.5" style="stroke:#181818;stroke-width:0.5;" width="166" x="262.5" y="105.246"/><ellipse cx="303.6" cy="121.246" fill="#ADD1B2" rx="11" ry="11" style="stroke:#181818;stroke-width:1.0;"/><path d="M305.9438,116.9179 C305.0063,116.4804 304.4125,116.3397 303.5375,116.3397 C300.9125,116.3397 298.9125,118.4179 298.9125,121.1366 L298.9125,122.2616 C298.9125,124.8397 301.0219,126.7304 303.9125,126.7304 C305.1313,126.7304 306.2875,126.4335 307.0375,125.8866 C307.6156,125.4804 307.9438,125.0272 307.9438,124.6366 C307.9438,124.1835 307.5531,123.7929 307.0844,123.7929 C306.8656,123.7929 306.6625,123.871 306.475,124.0585 C306.0219,124.5429 306.0219,124.5429 305.8344,124.6366 C305.4125,124.9022 304.725,125.0272 303.9594,125.0272 C301.9125,125.0272 300.6156,123.9335 300.6156,122.2304 L300.6156,121.1366 C300.6156,119.3554 301.8656,118.0429 303.6,118.0429 C304.1781,118.0429 304.7875,118.1991 305.2563,118.4491 C305.7406,118.7304 305.9125,118.9491 306.0063,119.3554 C306.0688,119.7616 306.1,119.8866 306.2406,120.0116 C306.3813,120.1522 306.6156,120.2616 306.8344,120.2616 C307.1,120.2616 307.3656,120.121 307.5375,119.9022 C307.6469,119.746 307.6781,119.5585 307.6781,119.1366 L307.6781,117.7147 C307.6781,117.2772 307.6625,117.1522 307.5688,116.996 C307.4125,116.7304 307.1313,116.5897 306.8344,116.5897 C306.5375,116.5897 306.3344,116.6835 306.1156,116.996 L305.9438,116.9179 Z " fill="#000000"/><text fill="#000000" font-family="sans-serif" font-size="14" lengthAdjust="spacing" textLength="76" x="323.4" y="126.0927">Entreprise</text><line style="stroke:#181818;stroke-width:0.5;" x1="263.5" x2="427.5" y1="137.246" y2="137.246"/><rect fill="none" height="6" style="stroke:#C82930;stroke-width:1.0;" width="6" x="270.5" y="145.246"/><text fill="#000000" font-family="sans-serif" font-size="14" lengthAdjust="spacing" textLength="80" x="282.5" y="154.2411">String nom</text><rect fill="none" height="6" style="stroke:#C82930;stroke-width:1.0;" width="6" x="270.5" y="161.5429"/><text fill="#000000" font-family="sans-serif" font-size="14" lengthAdjust="spacing" textLength="103" x="282.5" y="170.538">String adresse</text><rect fill="none" height="6" style="stroke:#C82930;stroke-width:1.0;" width="6" x="270.5" y="177.8397"/><text fill="#000000" font-family="sans-serif" font-size="14" lengthAdjust="spacing" textLength="68" x="282.5" y="186.8349">String tel</text><rect fill="none" height="6" style="stroke:#C82930;stroke-width:1.0;" width="6" x="270.5" y="194.1366"/><text fill="#000000" font-family="sans-serif" font-size="14" lengthAdjust="spacing" textLength="133" x="282.5" y="203.1317">ArrayList Artisants</text><line style="stroke:#181818;stroke-width:0.5;" x1="263.5" x2="427.5" y1="210.4335" y2="210.4335"/><ellipse cx="273.5" cy="221.4335" fill="#84BE84" rx="3" ry="3" style="stroke:#038048;stroke-width:1.0;"/><text fill="#000000" font-family="sans-serif" font-size="14" lengthAdjust="spacing" textLength="105" x="282.5" y="227.4286">String getTel()</text><ellipse cx="273.5" cy="237.7304" fill="#84BE84" rx="3" ry="3" style="stroke:#038048;stroke-width:1.0;"/><text fill="#000000" font-family="sans-serif" font-size="14" lengthAdjust="spacing" textLength="140" x="282.5" y="243.7255">String getAdresse()</text><ellipse cx="273.5" cy="254.0272" fill="#84BE84" rx="3" ry="3" style="stroke:#038048;stroke-width:1.0;"/><text fill="#000000" font-family="sans-serif" font-size="14" lengthAdjust="spacing" textLength="116" x="282.5" y="260.0224">String getNom()</text><ellipse cx="273.5" cy="270.3241" fill="#84BE84" rx="3" ry="3" style="stroke:#038048;stroke-width:1.0;"/><text fill="#000000" font-family="sans-serif" font-size="14" lengthAdjust="spacing" textLength="138" x="282.5" y="276.3192">int salaireArtisant()</text><ellipse cx="273.5" cy="286.621" fill="#84BE84" rx="3" ry="3" style="stroke:#038048;stroke-width:1.0;"/><text fill="#000000" font-family="sans-serif" font-size="14" lengthAdjust="spacing" textLength="118" x="282.5" y="292.6161">String toString()</text></g><!--MD5=[7231450f633845da6e92cf0373678125]
class Chantier--><g id="elem_Chantier"><rect codeLine="29" fill="#F1F1F1" height="162.0781" id="Chantier" rx="2.5" ry="2.5" style="stroke:#181818;stroke-width:0.5;" width="180" x="463.5" y="121.746"/><ellipse cx="518.25" cy="137.746" fill="#ADD1B2" rx="11" ry="11" style="stroke:#181818;stroke-width:1.0;"/><path d="M520.5938,133.4179 C519.6563,132.9804 519.0625,132.8397 518.1875,132.8397 C515.5625,132.8397 513.5625,134.9179 513.5625,137.6366 L513.5625,138.7616 C513.5625,141.3397 515.6719,143.2304 518.5625,143.2304 C519.7813,143.2304 520.9375,142.9335 521.6875,142.3866 C522.2656,141.9804 522.5938,141.5272 522.5938,141.1366 C522.5938,140.6835 522.2031,140.2929 521.7344,140.2929 C521.5156,140.2929 521.3125,140.371 521.125,140.5585 C520.6719,141.0429 520.6719,141.0429 520.4844,141.1366 C520.0625,141.4022 519.375,141.5272 518.6094,141.5272 C516.5625,141.5272 515.2656,140.4335 515.2656,138.7304 L515.2656,137.6366 C515.2656,135.8554 516.5156,134.5429 518.25,134.5429 C518.8281,134.5429 519.4375,134.6991 519.9063,134.9491 C520.3906,135.2304 520.5625,135.4491 520.6563,135.8554 C520.7188,136.2616 520.75,136.3866 520.8906,136.5116 C521.0313,136.6522 521.2656,136.7616 521.4844,136.7616 C521.75,136.7616 522.0156,136.621 522.1875,136.4022 C522.2969,136.246 522.3281,136.0585 522.3281,135.6366 L522.3281,134.2147 C522.3281,133.7772 522.3125,133.6522 522.2188,133.496 C522.0625,133.2304 521.7813,133.0897 521.4844,133.0897 C521.1875,133.0897 520.9844,133.1835 520.7656,133.496 L520.5938,133.4179 Z " fill="#000000"/><text fill="#000000" font-family="sans-serif" font-size="14" lengthAdjust="spacing" textLength="62" x="538.75" y="142.5927">Chantier</text><line style="stroke:#181818;stroke-width:0.5;" x1="464.5" x2="642.5" y1="153.746" y2="153.746"/><rect fill="none" height="6" style="stroke:#C82930;stroke-width:1.0;" width="6" x="471.5" y="161.746"/><text fill="#000000" font-family="sans-serif" font-size="14" lengthAdjust="spacing" textLength="117" x="483.5" y="170.7411">Date dateDebut</text><rect fill="none" height="6" style="stroke:#C82930;stroke-width:1.0;" width="6" x="471.5" y="178.0429"/><text fill="#000000" font-family="sans-serif" font-size="14" lengthAdjust="spacing" textLength="93" x="483.5" y="187.038">Date dateFin</text><rect fill="none" height="6" style="stroke:#C82930;stroke-width:1.0;" width="6" x="471.5" y="194.3397"/><text fill="#000000" font-family="sans-serif" font-size="14" lengthAdjust="spacing" textLength="105" x="483.5" y="203.3349">String Adresse</text><line style="stroke:#181818;stroke-width:0.5;" x1="464.5" x2="642.5" y1="210.6366" y2="210.6366"/><ellipse cx="474.5" cy="221.6366" fill="#84BE84" rx="3" ry="3" style="stroke:#038048;stroke-width:1.0;"/><text fill="#000000" font-family="sans-serif" font-size="14" lengthAdjust="spacing" textLength="154" x="483.5" y="227.6317">Date getDateDebut()</text><ellipse cx="474.5" cy="237.9335" fill="#84BE84" rx="3" ry="3" style="stroke:#038048;stroke-width:1.0;"/><text fill="#000000" font-family="sans-serif" font-size="14" lengthAdjust="spacing" textLength="130" x="483.5" y="243.9286">Date getDateFin()</text><ellipse cx="474.5" cy="254.2304" fill="#84BE84" rx="3" ry="3" style="stroke:#038048;stroke-width:1.0;"/><text fill="#000000" font-family="sans-serif" font-size="14" lengthAdjust="spacing" textLength="140" x="483.5" y="260.2255">String getAdresse()</text><ellipse cx="474.5" cy="270.5273" fill="#84BE84" rx="3" ry="3" style="stroke:#038048;stroke-width:1.0;"/><text fill="#000000" font-family="sans-serif" font-size="14" lengthAdjust="spacing" textLength="118" x="483.5" y="276.5224">String toString()</text></g><!--MD5=[bd0fbb03830d0fa51e709aeff4dd573d]
class Affecte--><g id="elem_Affecte"><rect codeLine="39" fill="#F1F1F1" height="227.2656" id="Affecte" rx="2.5" ry="2.5" style="stroke:#181818;stroke-width:0.5;" width="184" x="133.5" y="392.746"/><ellipse cx="193.75" cy="408.746" fill="#ADD1B2" rx="11" ry="11" style="stroke:#181818;stroke-width:1.0;"/><path d="M196.0938,404.4179 C195.1563,403.9804 194.5625,403.8398 193.6875,403.8398 C191.0625,403.8398 189.0625,405.9179 189.0625,408.6366 L189.0625,409.7616 C189.0625,412.3398 191.1719,414.2304 194.0625,414.2304 C195.2813,414.2304 196.4375,413.9335 197.1875,413.3866 C197.7656,412.9804 198.0938,412.5273 198.0938,412.1366 C198.0938,411.6835 197.7031,411.2929 197.2344,411.2929 C197.0156,411.2929 196.8125,411.371 196.625,411.5585 C196.1719,412.0429 196.1719,412.0429 195.9844,412.1366 C195.5625,412.4023 194.875,412.5273 194.1094,412.5273 C192.0625,412.5273 190.7656,411.4335 190.7656,409.7304 L190.7656,408.6366 C190.7656,406.8554 192.0156,405.5429 193.75,405.5429 C194.3281,405.5429 194.9375,405.6991 195.4063,405.9491 C195.8906,406.2304 196.0625,406.4491 196.1563,406.8554 C196.2188,407.2616 196.25,407.3866 196.3906,407.5116 C196.5313,407.6523 196.7656,407.7616 196.9844,407.7616 C197.25,407.7616 197.5156,407.621 197.6875,407.4023 C197.7969,407.246 197.8281,407.0585 197.8281,406.6366 L197.8281,405.2148 C197.8281,404.7773 197.8125,404.6523 197.7188,404.496 C197.5625,404.2304 197.2813,404.0898 196.9844,404.0898 C196.6875,404.0898 196.4844,404.1835 196.2656,404.496 L196.0938,404.4179 Z " fill="#000000"/><text fill="#000000" font-family="sans-serif" font-size="14" lengthAdjust="spacing" textLength="55" x="214.25" y="413.5927">Affecte</text><line style="stroke:#181818;stroke-width:0.5;" x1="134.5" x2="316.5" y1="424.746" y2="424.746"/><rect fill="none" height="6" style="stroke:#C82930;stroke-width:1.0;" width="6" x="141.5" y="432.746"/><text fill="#000000" font-family="sans-serif" font-size="14" lengthAdjust="spacing" textLength="86" x="153.5" y="441.7411">int NbHeure</text><rect fill="none" height="6" style="stroke:#C82930;stroke-width:1.0;" width="6" x="141.5" y="449.0429"/><text fill="#000000" font-family="sans-serif" font-size="14" lengthAdjust="spacing" textLength="123" x="153.5" y="458.038">String idChantier</text><rect fill="none" height="6" style="stroke:#C82930;stroke-width:1.0;" width="6" x="141.5" y="465.3398"/><text fill="#000000" font-family="sans-serif" font-size="14" lengthAdjust="spacing" textLength="119" x="153.5" y="474.3349">String idArtisant</text><rect fill="none" height="6" style="stroke:#C82930;stroke-width:1.0;" width="6" x="141.5" y="481.6366"/><text fill="#000000" font-family="sans-serif" font-size="14" lengthAdjust="spacing" textLength="117" x="153.5" y="490.6317">Date dateDebut</text><rect fill="none" height="6" style="stroke:#C82930;stroke-width:1.0;" width="6" x="141.5" y="497.9335"/><text fill="#000000" font-family="sans-serif" font-size="14" lengthAdjust="spacing" textLength="93" x="153.5" y="506.9286">Date dateFin</text><line style="stroke:#181818;stroke-width:0.5;" x1="134.5" x2="316.5" y1="514.2304" y2="514.2304"/><ellipse cx="144.5" cy="525.2304" fill="#84BE84" rx="3" ry="3" style="stroke:#038048;stroke-width:1.0;"/><text fill="#000000" font-family="sans-serif" font-size="14" lengthAdjust="spacing" textLength="118" x="153.5" y="531.2255">String toString()</text><ellipse cx="144.5" cy="541.5273" fill="#84BE84" rx="3" ry="3" style="stroke:#038048;stroke-width:1.0;"/><text fill="#000000" font-family="sans-serif" font-size="14" lengthAdjust="spacing" textLength="121" x="153.5" y="547.5224">int getNbHeure()</text><ellipse cx="144.5" cy="557.8241" fill="#84BE84" rx="3" ry="3" style="stroke:#038048;stroke-width:1.0;"/><text fill="#000000" font-family="sans-serif" font-size="14" lengthAdjust="spacing" textLength="158" x="153.5" y="563.8192">String getIdChantier()</text><ellipse cx="144.5" cy="574.121" fill="#84BE84" rx="3" ry="3" style="stroke:#038048;stroke-width:1.0;"/><text fill="#000000" font-family="sans-serif" font-size="14" lengthAdjust="spacing" textLength="154" x="153.5" y="580.1161">String getIdArtisant()</text><ellipse cx="144.5" cy="590.4179" fill="#84BE84" rx="3" ry="3" style="stroke:#038048;stroke-width:1.0;"/><text fill="#000000" font-family="sans-serif" font-size="14" lengthAdjust="spacing" textLength="154" x="153.5" y="596.413">Date getDateDebut()</text><ellipse cx="144.5" cy="606.7148" fill="#84BE84" rx="3" ry="3" style="stroke:#038048;stroke-width:1.0;"/><text fill="#000000" font-family="sans-serif" font-size="14" lengthAdjust="spacing" textLength="130" x="153.5" y="612.7099">Date getDateFin()</text></g><ellipse cx="225.5" cy="202.746" fill="#000000" rx="2" ry="2" style="stroke:none;stroke-width:1.0;"/><!--MD5=[147884f2110e10cbf61a8b36258b92ae]
link Artisant to Entreprise--><g id="link_Artisant_Entreprise"><path codeLine="53" d="M152.673,72.437 C172.903,44.686 198.258,27.687 228,42.746 C255.365,56.601 277.904,80.161 295.666,105.003 " fill="none" id="Artisant-Entreprise" style="stroke:#181818;stroke-width:1.0;"/><text fill="#000000" font-family="sans-serif" font-size="13" lengthAdjust="spacing" textLength="23" x="132.1978" y="61.5447">1..*</text><text fill="#000000" font-family="sans-serif" font-size="13" lengthAdjust="spacing" textLength="23" x="267.9701" y="94.0299">1..*</text></g><!--MD5=[c2de7d0ee42670d9ff0a26fc84907427]
link Entreprise to Chantier--><g id="link_Entreprise_Chantier"><path codeLine="54" d="M428.781,202.746 C440.311,202.746 451.841,202.746 463.371,202.746 " fill="none" id="Entreprise-Chantier" style="stroke:#181818;stroke-width:1.0;"/><text fill="#000000" font-family="sans-serif" font-size="13" lengthAdjust="spacing" textLength="23" x="432.514" y="198.8955">1..*</text><text fill="#000000" font-family="sans-serif" font-size="13" lengthAdjust="spacing" textLength="23" x="432.59" y="215.3892">0..*</text></g><!--MD5=[7888be8d6812c711bcc99c15e915a132]
link Artisant to apoint360983--><g id="link_Artisant_apoint360983"><path d="M188.5,202.746 C200.159,202.746 211.818,202.746 223.477,202.746 " fill="none" id="Artisant-apoint360983" style="stroke:#181818;stroke-width:1.0;"/><text fill="#000000" font-family="sans-serif" font-size="13" lengthAdjust="spacing" textLength="23" x="192.489" y="197.7022">1..*</text></g><!--MD5=[b73457d3611d5158dc6646aea0f3a78f]
link apoint360983 to Chantier--><g id="link_apoint360983_Chantier"><path d="M225.082,200.583 C222.008,183.962 204.614,76.281 263,42.746 C326.976,6 362.721,10.339 429,42.746 C463.465,59.598 491.151,91.105 511.584,121.734 " fill="none" id="apoint360983-Chantier" style="stroke:#181818;stroke-width:1.0;"/><text fill="#000000" font-family="sans-serif" font-size="13" lengthAdjust="spacing" textLength="23" x="483.6597" y="110.6437">0..*</text></g><!--MD5=[a323849322a9c4ec84e73babf67d203f]
link apoint360983 to Affecte--><g id="link_apoint360983_Affecte"><path d="M225.5,204.838 C225.5,216.073 225.5,311.891 225.5,392.337 " fill="none" id="apoint360983-Affecte" style="stroke:#181818;stroke-width:1.0;stroke-dasharray:7.0,7.0;"/></g><!--MD5=[60828601f7bc632c1ff8237643d3de83]
@startuml
class Artisant {
    -String nom
    -String prenom
    -String adresse
    -int Salaire
    -String tel
    -String specialite
    +String getNom()
    +String getPrenom()
    +String getAdresse()
    +int getSalaire()
    +String getTel()
    +String getSpecialite()
    +String toString()
}

class Entreprise {
    -String nom
    -String adresse
    -String tel
    -ArrayList Artisants
    +String getTel()
    +String getAdresse()
    +String getNom()
    +int salaireArtisant()
    +String toString()
}

class Chantier  {
    -Date dateDebut
    -Date dateFin
    -String Adresse
    +Date getDateDebut()
    +Date getDateFin()
    +String getAdresse()
    +String toString()
}

class Affecte {
    -int NbHeure
    -String idChantier
    -String idArtisant
    -Date dateDebut
    -Date dateFin
    +String toString()
    +int getNbHeure()
    +String getIdChantier()
    +String getIdArtisant()
    +Date getDateDebut()
    +Date getDateFin()
}

Artisant "1..*" - "1..*" Entreprise
Entreprise "1..*" - "0..*" Chantier
Artisant "1..*" - "0..*" Chantier
(Artisant, Chantier) .. Affecte
@enduml

PlantUML version 1.2022.3beta2(Unknown compile time)
(GPL source distribution)
Java Runtime: Java(TM) SE Runtime Environment
JVM: Java HotSpot(TM) 64-Bit Server VM
Default Encoding: UTF-8
Language: en
Country: US
--></g></svg>